HIERARCHY
ROOT Hips
{
	OFFSET -0.001795 -0.223333 0.028219
	CHANNELS 6 Xposition Yposition Zposition Zrotation Yrotation Xrotation
	JOINT LeftUpLeg
	{
		OFFSET 0.069520 -0.091406 -0.006815
		CHANNELS 3 Zrotation Yrotation Xrotation
		JOINT LeftLeg
		{
			OFFSET 0.034277 -0.375199 -0.004496
			CHANNELS 3 Zrotation Yrotation Xrotation
			JOINT LeftFoot
			{
				OFFSET -0.013596 -0.397961 -0.043693
				CHANNELS 3 Zrotation Yrotation Xrotation
				JOINT LeftToe
				{
					OFFSET 0.026358 -0.055791 0.119288
					CHANNELS 3 Zrotation Yrotation Xrotation
					End Site
					{
						OFFSET 0.000000 0.000000 0.000000
					}
				}
			}
		}
	}
	JOINT RightUpLeg
	{
		OFFSET -0.067670 -0.090522 -0.004320
		CHANNELS 3 Zrotation Yrotation Xrotation
		JOINT RightLeg
		{
			OFFSET -0.038290 -0.382569 -0.008850
			CHANNELS 3 Zrotation Yrotation Xrotation
			JOINT RightFoot
			{
				OFFSET 0.015774 -0.398415 -0.042312
				CHANNELS 3 Zrotation Yrotation Xrotation
				JOINT RightToe
				{
					OFFSET -0.025372 -0.048144 0.123348
					CHANNELS 3 Zrotation Yrotation Xrotation
					End Site
					{
						OFFSET 0.000000 0.000000 0.000000
					}
				}
			}
		}
	}
	JOINT Spine
	{
		OFFSET -0.002533 0.108963 -0.026696
		CHANNELS 3 Zrotation Yrotation Xrotation
		JOINT Spine1
		{
			OFFSET 0.005487 0.135180 0.001092
			CHANNELS 3 Zrotation Yrotation Xrotation
			JOINT Spine2
			{
				OFFSET 0.001457 0.052922 0.025425
				CHANNELS 3 Zrotation Yrotation Xrotation
				JOINT Neck
				{
					OFFSET -0.002778 0.213870 -0.042857
					CHANNELS 3 Zrotation Yrotation Xrotation
					JOINT Head
					{
						OFFSET 0.005152 0.064970 0.051349
						CHANNELS 3 Zrotation Yrotation Xrotation
						End Site
						{
							OFFSET 0.000000 0.000000 0.000000
						}
					}
				}
				JOINT LeftShoulder
				{
					OFFSET 0.078845 0.121749 -0.034090
					CHANNELS 3 Zrotation Yrotation Xrotation
					JOINT LeftArm
					{
						OFFSET 0.090977 0.030469 -0.008868
						CHANNELS 3 Zrotation Yrotation Xrotation
						JOINT LeftForeArm
						{
							OFFSET 0.259612 -0.012772 -0.027456
							CHANNELS 3 Zrotation Yrotation Xrotation
							JOINT LeftHand
							{
								OFFSET 0.249234 0.008986 -0.001171
								CHANNELS 3 Zrotation Yrotation Xrotation
								End Site
								{
									OFFSET 0.000000 0.000000 0.000000
								}
							}
						}
					}
				}
				JOINT RightShoulder
				{
					OFFSET -0.081759 0.118833 -0.038615
					CHANNELS 3 Zrotation Yrotation Xrotation
					JOINT RightArm
					{
						OFFSET -0.096012 0.032551 -0.009143
						CHANNELS 3 Zrotation Yrotation Xrotation
						JOINT RightForeArm
						{
							OFFSET -0.253742 -0.013329 -0.021401
							CHANNELS 3 Zrotation Yrotation Xrotation
							JOINT RightHand
							{
								OFFSET -0.255298 0.007772 -0.005559
								CHANNELS 3 Zrotation Yrotation Xrotation
								End Site
								{
									OFFSET 0.000000 0.000000 0.000000
								}
							}
						}
					}
				}
			}
		}
	}
}
MOTION
Frames: 16
Frame Time: 0.050000
0.000000 0.957709 0.000000 -1.783840 14.289098 1.825512 0.704569 0.179696 3.123139 -4.208237 0.269802 -5.075629 7.836658 18.449999 17.347143 0.000000 0.000000 0.000000 -3.446144 0.208734 -3.102326 5.280049 -1.598929 18.346440 -6.601764 -15.694033 18.251964 0.000000 0.000000 0.000000 -0.483960 -0.481005 10.286240 3.984611 0.035301 -25.831393 -1.186931 -1.593780 27.773029 1.638816 1.381109 -20.930780 0.000000 0.000000 0.000000 -27.582485 -1.855396 -3.538425 -48.161546 -0.683065 -7.011279 -13.828220 -30.108166 4.792470 0.000000 0.000000 0.000000 20.241717 1.593621 2.017059 56.642919 0.981618 -7.947663 2.124066 35.007805 3.105736 0.000000 0.000000 0.000000
0.001603 0.956001 -0.000372 -2.099864 13.091778 1.921679 0.022857 0.249836 3.382739 -2.880402 0.244350 -5.689840 8.660276 19.386326 17.214001 0.000000 0.000000 0.000000 -3.365448 0.375847 -5.432384 5.383712 -1.871404 22.428922 -6.655947 -16.017363 16.201927 0.000000 0.000000 0.000000 -0.244063 -0.488368 10.108426 3.913810 0.057448 -27.229588 -1.721866 -0.808238 29.840636 1.926961 1.253876 -21.268001 0.000000 0.000000 0.000000 -26.179821 -0.782551 -3.890983 -49.479844 -1.418268 -7.215388 -13.276720 -29.856880 4.650494 0.000000 0.000000 0.000000 20.905699 2.333287 2.617241 57.050318 1.018560 -8.250453 0.837408 37.083773 3.048471 0.000000 0.000000 0.000000
0.002529 0.955499 -0.001148 -1.584199 12.231150 2.068888 -0.280838 0.228832 2.752114 -3.613408 0.281018 -4.613318 9.162368 19.987890 17.346491 0.000000 0.000000 0.000000 -4.274730 0.383897 -6.386191 5.965158 -2.181038 24.565982 -6.772439 -16.404579 14.328808 0.000000 0.000000 0.000000 -0.618871 -0.455546 10.350949 3.443151 0.129642 -26.329770 -1.772012 -1.162879 29.415371 1.317748 1.409930 -20.279138 0.000000 0.000000 0.000000 -26.454616 -1.300891 -3.269228 -48.869428 -1.853970 -6.988470 -12.712613 -30.086053 4.596557 0.000000 0.000000 0.000000 21.121712 3.409394 2.964281 56.429179 1.477363 -7.921143 1.783353 37.372573 3.247334 0.000000 0.000000 0.000000
0.003196 0.955862 -0.002414 -1.696986 10.913083 2.023220 -0.733495 0.283153 3.048253 -3.210393 0.279376 -4.812057 10.033199 20.992543 17.226307 0.000000 0.000000 0.000000 -4.711624 0.429667 -7.523586 6.640213 -2.617427 28.096642 -6.558611 -16.214263 13.297430 0.000000 0.000000 0.000000 -1.112506 -0.423377 10.839005 3.855736 0.044658 -27.557962 -1.681648 -0.854822 31.168876 1.899495 0.920578 -20.242562 0.000000 0.000000 0.000000 -27.485813 -1.127936 -3.256021 -48.414109 -1.867720 -7.120511 -12.591712 -30.441799 4.706916 0.000000 0.000000 0.000000 20.722339 4.227899 3.319141 56.088506 2.120661 -7.775582 1.441556 38.485694 3.254997 0.000000 0.000000 0.000000
0.003296 0.956692 -0.004401 -1.618594 10.529942 2.084006 -0.427854 0.221289 2.482053 -4.126489 0.325853 -3.940056 10.248941 21.250449 17.108660 0.000000 0.000000 0.000000 -4.954684 0.451291 -8.239855 7.175710 -2.996720 30.211088 -7.297303 -17.564162 14.863326 0.000000 0.000000 0.000000 -1.305369 -0.465608 12.086142 4.471608 -0.110286 -27.048199 -2.517771 -0.838090 30.107698 2.631146 0.297134 -19.480799 0.000000 0.000000 0.000000 -27.089294 -1.596636 -2.805744 -48.057646 -2.364104 -6.812868 -13.220920 -31.712623 5.091029 0.000000 0.000000 0.000000 20.546990 4.155749 3.114251 55.983004 2.080782 -7.619269 2.469953 39.666516 3.689962 0.000000 0.000000 0.000000
0.002986 0.957659 -0.006894 -1.975185 9.311239 2.106579 -0.067474 0.184896 2.236398 -4.443446 0.357192 -3.678104 10.917540 22.049969 17.312872 0.000000 0.000000 0.000000 -4.930729 0.537263 -9.655056 7.851476 -3.478640 33.748064 -7.361844 -17.806049 16.031379 0.000000 0.000000 0.000000 -1.238044 -0.495158 12.702744 4.676621 -0.158751 -27.514674 -2.582742 -1.284987 30.418575 3.199716 -0.339984 -19.242596 0.000000 0.000000 0.000000 -27.251424 -1.812340 -2.175913 -47.189309 -3.374328 -6.493516 -14.527603 -33.438390 5.892751 0.000000 0.000000 0.000000 20.367363 4.759736 3.108506 55.530152 1.728609 -7.733947 3.047537 40.581572 3.877488 0.000000 0.000000 0.000000
0.002254 0.958184 -0.009420 -2.278073 8.130719 2.345861 0.025510 0.132029 1.601943 -4.571988 0.379141 -3.501939 12.415334 23.875241 18.322366 0.000000 0.000000 0.000000 -5.152766 0.605949 -11.145934 8.828635 -4.089928 37.006412 -7.707527 -18.523848 16.836442 0.000000 0.000000 0.000000 -1.038318 -0.545938 13.442707 5.100358 -0.273551 -27.314437 -3.158239 -1.558343 29.792402 3.599881 -0.853705 -18.604972 0.000000 0.000000 0.000000 -26.974029 -1.940499 -1.665325 -46.331733 -4.398840 -6.074699 -16.389932 -36.487338 7.183158 0.000000 0.000000 0.000000 19.933358 5.028123 2.912468 55.071665 0.921876 -7.915470 4.781297 42.320595 4.595244 0.000000 0.000000 0.000000
0.001007 0.958033 -0.011514 -2.684314 6.284976 2.286297 0.244966 0.081905 1.068753 -4.335264 0.390345 -3.045562 13.973873 25.632610 20.185346 0.000000 0.000000 0.000000 -5.070561 0.716534 -12.632575 9.633160 -4.519615 40.670721 -7.881783 -19.014702 17.247262 0.000000 0.000000 0.000000 -0.625091 -0.622097 14.286584 5.295878 -0.341063 -27.302295 -3.182419 -1.922300 29.800721 3.764420 -1.330608 -17.662016 0.000000 0.000000 0.000000 -26.823716 -1.912855 -1.052836 -45.990479 -5.568763 -5.803798 -18.421022 -40.449387 9.020442 0.000000 0.000000 0.000000 19.218197 5.180980 2.543479 54.951312 -0.041018 -8.263828 6.598236 43.766717 5.320196 0.000000 0.000000 0.000000
-0.000862 0.957996 -0.013313 -2.803102 4.777384 2.302614 0.409661 0.069063 0.960092 -4.463007 0.415446 -3.046311 14.959859 26.674287 21.165163 0.000000 0.000000 0.000000 -5.285360 0.764286 -13.390556 10.348421 -4.807345 43.128431 -8.207668 -19.704505 17.156605 0.000000 0.000000 0.000000 -0.671556 -0.619460 14.839807 6.002193 -0.523672 -27.145301 -3.600378 -2.159219 29.578227 4.263996 -1.937881 -17.116526 0.000000 0.000000 0.000000 -26.984413 -1.880658 -0.626607 -45.377299 -6.256667 -5.613195 -20.142759 -44.707009 11.001341 0.000000 0.000000 0.000000 18.848681 5.199422 2.212363 54.482279 -1.333028 -8.699533 8.308829 45.083527 6.028486 0.000000 0.000000 0.000000
-0.003382 0.957929 -0.015389 -2.938893 2.875150 2.459898 0.599438 0.036366 0.604629 -4.891809 0.471156 -2.686409 16.503278 28.349407 21.827927 0.000000 0.000000 0.000000 -5.191930 0.853594 -14.026146 10.558082 -4.574620 44.575363 -8.185906 -19.856153 15.778534 0.000000 0.000000 0.000000 -0.418601 -0.655446 15.512442 6.279760 -0.598350 -27.278340 -3.822857 -2.930473 29.763490 4.599644 -2.616827 -16.137231 0.000000 0.000000 0.000000 -27.744161 -1.574212 -0.095682 -45.021103 -7.130307 -5.518415 -20.098254 -48.186266 12.306427 0.000000 0.000000 0.000000 18.280015 5.416570 1.818225 54.133376 -2.445037 -9.087864 10.531995 46.379971 6.884007 0.000000 0.000000 0.000000
-0.006312 0.958041 -0.018124 -3.106849 0.725927 2.755767 0.954887 -0.013033 0.073756 -5.136713 0.521991 -2.265161 17.443387 29.270636 22.699564 0.000000 0.000000 0.000000 -5.053946 0.939290 -14.296236 10.825501 -4.190766 45.066510 -8.164567 -19.994077 14.587534 0.000000 0.000000 0.000000 -0.113727 -0.693638 16.244690 6.803008 -0.750381 -27.113612 -4.269905 -3.164263 29.530501 5.486354 -3.638902 -14.951228 0.000000 0.000000 0.000000 -28.059929 -2.132435 0.881596 -44.596259 -8.164373 -5.296330 -19.109881 -49.674610 12.508374 0.000000 0.000000 0.000000 18.427912 5.253261 1.300494 53.340503 -3.412629 -9.294050 11.801179 46.948255 7.249413 0.000000 0.000000 0.000000
-0.009335 0.957961 -0.021581 -3.206654 -1.670834 3.235534 1.335170 -0.095939 -0.929876 -5.393855 0.586224 -1.495649 18.468773 30.144468 24.140410 0.000000 0.000000 0.000000 -4.628498 1.065786 -14.662566 10.635854 -3.402775 44.263477 -7.660864 -19.275511 12.337998 0.000000 0.000000 0.000000 0.227374 -0.723548 16.906185 7.394045 -0.905282 -27.037299 -4.698553 -4.071698 29.471715 5.691979 -4.321895 -13.430694 0.000000 0.000000 0.000000 -28.731953 -2.314308 1.945641 -44.272285 -9.344908 -5.146084 -16.922511 -49.975542 11.867198 0.000000 0.000000 0.000000 18.655308 5.717530 0.883080 52.105798 -4.194418 -9.278573 12.265678 47.174785 7.046727 0.000000 0.000000 0.000000
-0.012050 0.957301 -0.025337 -3.385999 -4.032041 3.739917 1.634534 -0.162797 -1.825894 -5.626150 0.651642 -0.911900 19.912699 31.478980 25.290872 0.000000 0.000000 0.000000 -4.008319 1.171075 -14.545566 9.440379 -2.136832 42.363112 -6.673023 -17.607029 10.961863 0.000000 0.000000 0.000000 0.532828 -0.746744 17.679154 7.690397 -1.075665 -26.173011 -4.813822 -4.717368 28.863351 5.590045 -4.638420 -11.986871 0.000000 0.000000 0.000000 -28.903039 -2.983606 3.212163 -44.556018 -11.087312 -4.749962 -14.846557 -49.116458 10.903929 0.000000 0.000000 0.000000 18.449882 5.757429 0.326561 51.905500 -5.187093 -9.484110 12.624629 47.250160 6.822744 0.000000 0.000000 0.000000
-0.014340 0.956582 -0.029249 -3.300610 -5.894228 4.099155 1.525785 -0.242052 -2.888145 -5.796833 0.717308 0.058150 21.584504 33.018838 26.460781 0.000000 0.000000 0.000000 -3.377225 1.234281 -14.212751 8.011501 -1.023143 40.201353 -5.686031 -15.755757 9.513661 0.000000 0.000000 0.000000 0.755126 -0.762742 18.586647 8.372406 -1.243218 -26.093158 -5.448701 -5.540522 29.367833 5.673633 -5.089635 -10.894924 0.000000 0.000000 0.000000 -29.118327 -3.558706 4.417611 -44.531571 -13.161208 -4.297275 -12.781320 -48.682506 10.041157 0.000000 0.000000 0.000000 18.749583 5.999138 -0.120787 51.240470 -5.764814 -9.513753 12.308510 47.281336 6.351434 0.000000 0.000000 0.000000
-0.016238 0.955444 -0.033399 -2.986528 -7.134574 4.339950 1.461314 -0.311618 -3.810669 -6.186811 0.815640 1.140963 21.903087 33.382892 26.253759 0.000000 0.000000 0.000000 -2.962973 1.250220 -13.808400 6.540860 -0.170277 37.637854 -4.832111 -14.377633 10.242134 0.000000 0.000000 0.000000 0.990538 -0.787090 19.385103 8.483646 -1.348608 -25.468283 -5.659693 -6.479857 29.282585 5.244950 -4.985918 -10.300940 0.000000 0.000000 0.000000 -28.404952 -4.002430 5.279385 -45.637112 -15.514050 -3.580011 -11.259381 -49.038360 9.680511 0.000000 0.000000 0.000000 17.983739 5.469438 -0.761663 51.734448 -6.644514 -9.933176 11.972015 46.198838 5.757562 0.000000 0.000000 0.000000
-0.018140 0.954513 -0.038503 -2.636730 -7.665874 4.494763 1.363734 -0.372728 -4.591263 -6.323476 0.876548 2.233490 20.960860 32.686263 24.663434 0.000000 0.000000 0.000000 -2.429198 1.262200 -13.462412 4.909103 0.513757 35.188378 -3.869009 -12.601385 10.074230 0.000000 0.000000 0.000000 1.420482 -0.863566 19.921157 8.683166 -1.488409 -24.646186 -6.136938 -7.398914 29.447625 5.378742 -5.330475 -9.335583 0.000000 0.000000 0.000000 -27.978667 -5.041073 6.358736 -45.805681 -17.759275 -2.821748 -9.742689 -51.204495 9.621846 0.000000 0.000000 0.000000 18.404188 5.207811 -1.316053 51.333725 -7.682953 -10.179356 12.085519 45.848334 5.541048 0.000000 0.000000 0.000000
